# AST/ASF file generated using VICON BodyLanguage
# -----------------------------------------------
:version 1.10
:name VICON
:units
  mass 1.0
  length 0.45
  angle deg
:documentation
   .ast/.asf automatically generated from VICON data using
   VICON BodyBuilder and BodyLanguage model FoxedUp or BRILLIANT.MOD
:root
   order TX TY TZ RX RY RZ
   axis XYZ
   position 0 0 0  
   orientation 0 0 0 
:bonedata
  begin
     id 1 
     name lhipjoint
     direction 0.535335 -0.74333 0.401095 
     length 2.04549 
     axis 0 0 0  XYZ
  end
  begin
     id 2 
     name lfemur
     direction 0.34202 -0.939693 0  
     length 6.95643  
     axis 0 0 20  XYZ
    dof rx ry rz
    limits (-160.0 20.0)
           (-70.0 70.0)
           (-60.0 70.0)
  end
  begin
     id 3 
     name ltibia
     direction 0.34192 -0.939729 0   
     length 5.55969   
     axis 0 0 20   XYZ
    dof rx
    limits (-10.0 170.0)
  end
  begin
     id 4 
     name lfoot
     direction 0.216943 -0.596046 0.773088   
     length 2.27918   
     axis -90 7.62852e-016 20   XYZ
    dof rx rz
    limits (-45.0 90.0)
           (-70.0 20.0)
  end
  begin
     id 5 
     name ltoes
     direction 1.53519e-011 -4.21748e-011 1   
     length 1.05562   
     axis -90 7.62852e-016 20   XYZ
    dof rx
    limits (-90.0 20.0)
  end
  begin
     id 6 
     name rhipjoint
     direction -0.576368 -0.719173 0.38806   
     length 2.1142  
     axis 0 0 0  XYZ 
  end
  begin
     id 7 
     name rfemur
     direction -0.34202 -0.939693 0   
     length 7.07928   
     axis 0 0 -20   XYZ
    dof rx ry rz
    limits (-160.0 20.0)
           (-70.0 70.0)
           (-70.0 60.0)
  end
  begin
     id 8 
     name rtibia
     direction -0.34202 -0.939693 0   
     length 5.79974   
     axis 0 0 -20   XYZ
    dof rx
    limits (-10.0 170.0)
 end
 begin
     id 9 
     name rfoot
     direction -0.189288 -0.520065 0.832888   
     length 2.42173  
     axis -90 -7.62852e-016 -20   XYZ
    dof rx rz
    limits (-45.0 90.0)
           (-20.0 70.0)
  end
  begin
     id 10 
     name rtoes
     direction -1.53574e-011 -4.21658e-011 1   
     length 1.14469   
     axis -90 -7.62852e-016 -20   XYZ
    dof rx
    limits (-90.0 20.0)
  end
  begin
     id 11 
     name lowerback
     direction -0.00135702 0.993803 0.111144   
     length 1.91308   
     axis 0 0 0   XYZ
    dof rx ry rz
    limits (-20.0 45.0)
           (-30.0 30.0)
           (-30.0 30.0)
  end
  begin
     id 12 
     name upperback
     direction -0.0056745 0.999813 0.0184631   
     length 1.9212   
     axis 0 0 0   XYZ
    dof rx ry rz
    limits (-20.0 45.0)
           (-30.0 30.0)
           (-30.0 30.0)
  end
  begin
     id 13 
     name thorax
     direction -0.00733434 0.999426 -0.0330788   
     length 1.94196   
     axis 0 0 0   XYZ
    dof rx ry rz
    limits (-20.0 45.0)
           (-30.0 30.0)
           (-30.0 30.0)
  end
  begin
     id 14 
     name lowerneck
     direction 0.0563074 0.996944 -0.0541571   
     length 2.34257   
     axis 0 0 0   XYZ
    dof rx ry rz
    limits (-20.0 45.0)
           (-30.0 30.0)
           (-30.0 30.0)
  end
  begin
     id 15 
     name upperneck
     direction -0.0544519 0.976166 -0.210085   
     length 2.32506   
     axis 0 0 0   XYZ
    dof rx ry rz
    limits (-20.0 45.0)
           (-30.0 30.0)
           (-30.0 30.0)
  end
  begin
     id 16
     name head
     direction -0.0226035 0.997615 -0.0652205  
     length 2.3648  
     axis 0 0 0   XYZ
    dof rx ry rz
    limits (-20.0 45.0)
           (-30.0 30.0)
           (-30.0 30.0)
  end
  begin
     id 17 
     name lclavicle
     direction 0.92109 0.381297 -0.0787716  
     length 4.0487  
     axis 0 0 0   XYZ
    dof ry rz
    limits (-20.0 10.0)
           (0.0 20.0)
  end
  begin
     id 18 
     name lhumerus
     direction 1 -4.48986e-011 3.56724e-027   
     length 4.94991   
     axis 180 -30 -90   XYZ
    dof rx ry rz
    limits (-60.0 90.0)
           (-90.0 90.0)
           (-90.0 90.0)
  end
  begin
     id 19
     name lradius
     direction 1 -4.48981e-011 8.62147e-027   
     length 2.7606   
     axis 180 -30 -90   XYZ
    dof rx
    limits (-10.0 170.0)
  end
  begin
     id 20
     name lwrist
     direction 1 -4.48989e-011 1.59799e-026   
     length 1.3803   
     axis -1.17785e-014 90 90   XYZ
    dof ry
    limits (-180.0 0.0)
 end
  begin
     id 21 
     name lhand
     direction 1 -4.48896e-011 3.19599e-026   
     length 0.843936   
     axis -2.03931e-014 90 90   XYZ
    dof rx rz
    limits (-90.0 90.0)
           (-45.0 45.0)
  end
  begin
     id 22 
     name lfingers
     direction 1 -4.48887e-011 6.39197e-026   
     length 0.680403   
     axis -4.07862e-014 90 90   XYZ
    dof rx
    limits (0.0 90.0)
  end
  begin
     id 23
     name lthumb
     direction 0.707107 -6.348e-011 0.707107   
     length 0.976926   
     axis -90 45 2.85299e-015   XYZ
    dof rx rz
    limits (-45.0 45.0)
           (-45.0 45.0)
  end
  begin
     id 24 
     name rclavicle
     direction -0.951104 0.307692 -0.026953   
     length 4.21801  
     axis 0 0 0   XYZ 
    dof ry rz
    limits (-10.0 20.0)
           (-20.0 0.0)
  end
  begin
     id 25 
     name rhumerus
     direction -1 -4.4896e-011 -1.8171e-018  
     length 4.32982   
     axis 180 30 90   XYZ
    dof rx ry rz
    limits (-90.0 60.0)
           (-90.0 90.0)
           (-90.0 90.0)
  end
  begin
     id 26 
     name rradius
     direction -1 -4.48959e-011 8.25165e-027   
     length 3.20057   
     axis 180 30 90   XYZ
    dof rx
    limits (-10.0 170.0)
  end
  begin
     id 27 
     name rwrist
     direction -1 -4.48997e-011 1.59799e-026   
     length 1.60029   
     axis -1.17785e-014 -90 -90   XYZ
    dof ry
    limits (-180.0 0.0)
  end
  begin
     id 28
     name rhand
     direction -1 -4.49023e-011 3.19599e-026   
     length 0.960433   
     axis -2.03931e-014 -90 -90   XYZ
    dof rx rz
    limits (-90.0 90.0)
           (-45.0 45.0)
  end
  begin
     id 29
     name rfingers
     direction -1 -4.48802e-011 6.39197e-026   
     length 0.774326   
     axis -4.07862e-014 -90 -90   XYZ
    dof rx
    limits (0.0 90.0)
  end
  begin
     id 30
     name rthumb
     direction -0.707107 -6.34876e-011 0.707107   
     length 1.11178   
     axis -90 -45 -2.85299e-015   XYZ
    dof rx rz
    limits (-45.0 45.0)
           (-45.0 45.0)
  end
:hierarchy
  begin
    root lhipjoint rhipjoint lowerback
    lhipjoint lfemur
    lfemur ltibia
    ltibia lfoot
    lfoot ltoes
    rhipjoint rfemur
    rfemur rtibia
    rtibia rfoot
    rfoot rtoes
    lowerback upperback
    upperback thorax
    thorax lowerneck lclavicle rclavicle
    lowerneck upperneck
    upperneck head
    lclavicle lhumerus
    lhumerus lradius
    lradius lwrist
    lwrist lhand lthumb
    lhand lfingers
    rclavicle rhumerus
    rhumerus rradius
    rradius rwrist
    rwrist rhand rthumb
    rhand rfingers
end

#!OML:ASF C:\KaitlinTest1\Natural Motions\Nikki\Session 2\Nikki.ASF
:FULLY-SPECIFIED
:DEGREES
364
root -13.3814 16.7383 5.01875 -329.2 92.5453 -340.436
lowerback -10.1069 -1.40503 3.05425
upperback -7.35388 -1.77222 -1.09809
thorax -2.13831 -0.891088 -2.99887
lowerneck -13.2043 -13.5668 -7.17686
upperneck 3.69413 40.8765 5.34367
head 167.471 57.2189 -38.4152
rclavicle 9.14409e-015 5.1684e-015
rhumerus -68.6319 -46.6582 -36.149
rradius 11.5898
rwrist 41.6818
rhand -38.7848 0.786965
rfingers 7.12502
rthumb -11.7962 -28.8608
lclavicle 9.14409e-015 5.1684e-015
lhumerus -74.9998 33.9528 38.1998
lradius 17.7936
lwrist -43.3538
lhand -23.9143 6.24862
lfingers 7.12502
lthumb 2.56017 36.213
rfemur -9.42426 -7.43611 19.9055
rtibia 13.4295
rfoot -11.9984 0.272564
rtoes -4.6118e-014
lfemur -14.3972 9.09551 -18.378
ltibia 13.7121
lfoot -2.95214 -9.14699
ltoes -9.54166e-015
365
root -13.3872 16.7428 5.01415 -329.683 92.5962 -340.986
lowerback -10.0077 -1.41299 3.06966
upperback -7.43453 -1.77647 -1.06468
thorax -2.27723 -0.89491 -2.96944
lowerneck -13.2651 -13.5592 -7.12569
upperneck 3.75141 41.1301 5.42484
head 167.623 57.0528 -38.4076
rclavicle -7.85199e-015 3.18055e-015
rhumerus -70.1872 -46.8178 -33.7024
rradius 11.5336
rwrist 41.7857
rhand -38.991 0.0659609
rfingers 7.12502
rthumb -11.995 -29.5703
lclavicle -7.85199e-015 3.18055e-015
lhumerus -74.3462 32.3397 40.3431
lradius 18.2116
lwrist -41.6518
lhand -23.6175 5.66959
lfingers 7.12502
lthumb 2.84678 35.6303
rfemur -9.35447 -7.86996 19.9526
rtibia 12.9893
rfoot -11.5858 0.754386
rtoes -6.75868e-015
lfemur -14.4364 9.79637 -18.5329
ltibia 13.4646
lfoot -2.78522 -9.94051
ltoes 4.6118e-014
366
root -13.3938 16.7439 5.01155 -331.106 92.6486 -342.531
lowerback -9.99209 -1.37682 3.05445
upperback -7.48241 -1.72302 -1.02923
thorax -2.33033 -0.866792 -2.91912
lowerneck -13.4098 -13.4943 -7.29047
upperneck 3.8325 41.7581 5.54978
head 168.412 56.3754 -38.0559
rclavicle -2.49475e-014 -6.36111e-015
rhumerus -71.893 -46.9623 -30.9015
rradius 11.4434
rwrist 42.5983
rhand -38.9834 -0.00162876
rfingers 7.12502
rthumb -11.9877 -29.6383
lclavicle -2.49475e-014 -6.36111e-015
lhumerus -73.7393 30.8628 42.469
lradius 18.71
lwrist -40.1366
lhand -23.3711 5.5022
lfingers 7.12502
lthumb 3.08477 35.4596
rfemur -9.43877 -8.1524 19.958
rtibia 12.7413
rfoot -11.2498 1.06091
rtoes -6.20208e-014
lfemur -14.4689 10.3601 -18.7169
ltibia 13.0744
lfoot -2.61813 -10.593
ltoes -1.27222e-014
367
root -13.4033 16.7512 5.00934 -333.515 92.6829 -345.078
lowerback -9.88368 -1.40867 2.97144
upperback -7.54214 -1.7532 -0.981513
thorax -2.44952 -0.879265 -2.82146
lowerneck -13.5933 -13.5461 -7.28081
upperneck 3.77531 41.708 5.47921
head 168.162 56.4147 -38.2276
rclavicle -4.67144e-015 -1.59028e-015
rhumerus -74.2168 -47.331 -27.1802
rradius 11.4141
rwrist 44.8932
rhand -38.7482 -0.0268859
rfingers 7.12502
rthumb -11.7609 -29.6767
lclavicle -4.67144e-015 -1.59028e-015
lhumerus -73.4584 29.7628 43.9412
lradius 19.0982
lwrist -39.0764
lhand -23.4226 5.14313
lfingers 7.12502
lthumb 3.035 35.1013
rfemur -9.61168 -8.3459 19.9233
rtibia 12.6033
rfoot -11.0024 1.23259
rtoes -2.38542e-015
lfemur -14.5361 11.0829 -18.9841
ltibia 12.6037
lfoot -2.23032 -11.468
ltoes 1.59028e-015
368
root -13.4139 16.7618 5.01153 -339.317 92.6519 -351.172
lowerback -9.94452 -1.45226 2.64431
upperback -7.57713 -1.7854 -0.993651
thorax -2.44242 -0.881313 -2.65381
lowerneck -13.9556 -13.6245 -7.14558
upperneck 3.69013 41.7211 5.45134
head 167.981 56.3871 -38.4205
rclavicle -2.28602e-015 5.76476e-015
rhumerus -74.9447 -47.2557 -25.755
rradius 11.4649
rwrist 45.246
rhand -38.8748 0.197112
rfingers 7.12502
rthumb -11.8829 -29.4457
lclavicle -2.28602e-015 5.76476e-015
lhumerus -72.828 28.5456 45.7661
lradius 19.4617
lwrist -37.4821
lhand -23.626 4.90423
lfingers 7.12502
lthumb 2.83851 34.8651
rfemur -9.97896 -8.67557 19.6828
rtibia 12.5515
rfoot -10.9018 1.54158
rtoes -5.00937e-014
lfemur -14.8027 12.0161 -19.5492
ltibia 12.1211
lfoot -1.87974 -12.5433
ltoes -1.59028e-015
369
root -13.421 16.7693 5.00833 -340.578 92.738 -352.729
lowerback -10.1396 -1.4791 2.61517
upperback -7.5105 -1.82506 -1.00144
thorax -2.26753 -0.897328 -2.65452
lowerneck -14.4485 -13.7229 -6.89738
upperneck 3.51956 41.5339 5.40342
head 167.669 56.6528 -38.7193
rclavicle 7.55382e-015 4.17448e-015
rhumerus -75.5648 -47.4771 -24.5298
rradius 11.5012
rwrist 45.4979
rhand -38.9693 0.188424
rfingers 7.12502
rthumb -11.9741 -29.4491
lclavicle 7.55382e-015 4.17448e-015
lhumerus -72.4715 27.8581 46.6642
lradius 19.729
lwrist -37.1047
lhand -23.9117 4.85529
lfingers 7.12502
lthumb 2.56264 34.8196
rfemur -10.3248 -9.0397 19.6875
rtibia 12.5303
rfoot -10.8711 1.82025
rtoes -2.22639e-014
lfemur -15.0778 13.054 -19.8745
ltibia 11.7227
lfoot -1.65912 -13.7367
ltoes 0
370
root -13.4271 16.7731 5.00739 -342.087 92.8568 -354.47
lowerback -10.2785 -1.54819 2.4963
upperback -7.44621 -1.91297 -0.897819
thorax -2.1207 -0.932362 -2.49151
lowerneck -14.9375 -13.8057 -6.7938
upperneck 3.3733 41.4426 5.28522
head 167.208 56.7817 -39.0807
rclavicle -2.10712e-014 -6.36111e-015
rhumerus -76.1362 -47.5102 -23.1438
rradius 11.6269
rwrist 46.7739
rhand -38.7412 0.467006
rfingers 7.12502
rthumb -11.7541 -29.1832
lclavicle -2.10712e-014 -6.36111e-015
lhumerus -72.3164 27.4908 47.3319
lradius 19.876
lwrist -36.7624
lhand -24.4792 4.8169
lfingers 7.12502
lthumb 2.01453 34.7871
rfemur -10.6429 -9.39366 19.7052
rtibia 12.6223
rfoot -10.9539 2.04133
rtoes -1.35174e-014
lfemur -15.3509 14.345 -20.2317
ltibia 11.4472
lfoot -1.58855 -15.1819
ltoes 2.06736e-014
371
root -13.4322 16.7763 5.00782 -343.191 92.9702 -355.791
lowerback -10.4667 -1.54815 2.37564
upperback -7.37189 -1.90943 -0.785384
thorax -1.93021 -0.920649 -2.31311
lowerneck -15.3623 -13.9634 -6.76722
upperneck 3.2291 41.2767 5.13171
head 166.689 56.8371 -39.4375
rclavicle -2.86001e-014 -3.97569e-015
rhumerus -75.3942 -47.1781 -23.6181
rradius 11.8394
rwrist 46.2154
rhand -38.7126 0.301636
rfingers 7.12502
rthumb -11.7265 -29.3501
lclavicle -2.86001e-014 -3.97569e-015
lhumerus -72.2137 27.2048 47.7926
lradius 19.9773
lwrist -36.9109
lhand -25.3025 4.64627
lfingers 7.12502
lthumb 1.21938 34.6225
rfemur -10.9577 -9.70455 19.7249
rtibia 12.7308
rfoot -10.9964 2.26484
rtoes -3.18055e-014
lfemur -15.7719 15.7989 -20.6085
ltibia 11.3891
lfoot -1.51461 -16.8064
ltoes -8.5875e-014
